<svg width="866" height="256" viewBox="0 0 866 256" fill="none" xmlns="http://www.w3.org/2000/svg">
<g clip-path="url(#clip0_79_70)">
<path d="M256 128C256 230.4 230.4 256 128 256C25.6 256 -5.59506e-06 230.4 -5.59506e-06 128C-3.72901e-06 25.6 25.6 -5.59506e-06 128 -5.59506e-06C230.4 -5.59506e-06 256 25.6 256 128ZM176 133.655C176 110.119 167.148 94.9893 144.102 94.9893C133.266 94.9893 122.735 98.0456 115.104 104.923L115.104 47L80 52.96L80 208.085L115.104 208.085L115.104 149.397C115.104 132.128 124.26 121.429 131.892 121.429C138.76 121.429 140.744 128.307 140.744 138.699L140.744 208.085L176 208.085L176 133.655Z" fill="black"/>
</g>
<path d="M354 180H328.625V69.75H371.325L394.425 147.275L417.35 69.75H460.05V180H434.675V95.65L408.425 180H380.25L354 95.65V180ZM513.919 182.625C508.086 182.625 502.602 181.633 497.469 179.65C492.336 177.667 487.844 174.867 483.994 171.25C480.261 167.633 477.286 163.317 475.069 158.3C472.852 153.167 471.744 147.567 471.744 141.5C471.744 135.433 472.852 129.892 475.069 124.875C477.286 119.742 480.319 115.367 484.169 111.75C488.019 108.133 492.511 105.333 497.644 103.35C502.777 101.367 508.202 100.375 513.919 100.375C519.636 100.375 525.061 101.367 530.194 103.35C535.327 105.333 539.819 108.133 543.669 111.75C547.519 115.367 550.552 119.742 552.769 124.875C554.986 129.892 556.094 135.433 556.094 141.5C556.094 147.567 554.986 153.167 552.769 158.3C550.552 163.317 547.519 167.633 543.669 171.25C539.936 174.867 535.502 177.667 530.369 179.65C525.236 181.633 519.752 182.625 513.919 182.625ZM513.919 159.875C518.819 159.875 522.552 158.183 525.119 154.8C527.802 151.3 529.144 146.867 529.144 141.5C529.144 136.133 527.802 131.758 525.119 128.375C522.436 124.875 518.702 123.125 513.919 123.125C509.136 123.125 505.402 124.875 502.719 128.375C500.036 131.758 498.694 136.133 498.694 141.5C498.694 146.867 499.977 151.3 502.544 154.8C505.227 158.183 509.019 159.875 513.919 159.875ZM653.283 141.5C653.283 148.033 652.35 153.867 650.483 159C648.733 164.133 646.342 168.45 643.308 171.95C640.392 175.45 636.892 178.133 632.808 180C628.725 181.75 624.467 182.625 620.033 182.625C614.9 182.625 610.117 181.575 605.683 179.475C601.25 177.375 597.633 174.167 594.833 169.85V180H567.883V61H594.833V113.15C597.633 108.833 601.25 105.625 605.683 103.525C610.117 101.425 614.9 100.375 620.033 100.375C624.467 100.375 628.725 101.308 632.808 103.175C636.892 104.925 640.392 107.55 643.308 111.05C646.342 114.55 648.733 118.867 650.483 124C652.35 129.133 653.283 134.967 653.283 141.5ZM610.408 122.25C605.625 122.25 601.775 124 598.858 127.5C595.942 130.883 594.483 135.55 594.483 141.5C594.483 147.45 595.942 152.175 598.858 155.675C601.892 159.058 605.742 160.75 610.408 160.75C615.425 160.75 619.333 158.942 622.133 155.325C624.933 151.592 626.333 146.983 626.333 141.5C626.333 136.017 624.933 131.467 622.133 127.85C619.333 124.117 615.425 122.25 610.408 122.25ZM678.77 93.725C674.22 93.725 670.312 92.15 667.045 89C663.895 85.7333 662.32 81.825 662.32 77.275C662.32 72.6083 663.895 68.7 667.045 65.55C670.312 62.4 674.22 60.825 678.77 60.825C683.32 60.825 687.17 62.4 690.32 65.55C693.587 68.7 695.22 72.6083 695.22 77.275C695.22 81.825 693.587 85.7333 690.32 89C687.17 92.15 683.32 93.725 678.77 93.725ZM665.295 180V103H692.245V180H665.295ZM708.02 180V61H734.97V180H708.02ZM788.37 182.625C782.303 182.625 776.703 181.633 771.57 179.65C766.436 177.55 762.003 174.692 758.27 171.075C754.653 167.458 751.795 163.142 749.695 158.125C747.711 152.992 746.72 147.45 746.72 141.5C746.72 135.55 747.711 130.067 749.695 125.05C751.795 119.917 754.653 115.542 758.27 111.925C762.003 108.308 766.378 105.508 771.395 103.525C776.528 101.425 782.128 100.375 788.195 100.375C794.495 100.375 800.153 101.367 805.17 103.35C810.303 105.217 814.561 107.9 817.945 111.4C821.445 114.783 824.128 118.867 825.995 123.65C827.861 128.433 828.795 133.625 828.795 139.225C828.795 140.742 828.736 142.2 828.62 143.6C828.503 144.883 828.386 146.283 828.27 147.8H773.32C774.136 153.4 775.828 157.25 778.395 159.35C781.078 161.45 784.403 162.5 788.37 162.5C792.22 162.5 795.136 161.742 797.12 160.225C799.22 158.708 800.561 156.725 801.145 154.275H827.745C826.811 158.942 825.12 163.083 822.67 166.7C820.22 170.2 817.245 173.117 813.745 175.45C810.361 177.783 806.453 179.533 802.02 180.7C797.703 181.983 793.153 182.625 788.37 182.625ZM787.845 120.5C783.878 120.5 780.553 121.492 777.87 123.475C775.303 125.342 773.67 128.433 772.97 132.75H802.545C802.078 128.667 800.503 125.633 797.82 123.65C795.253 121.55 791.928 120.5 787.845 120.5Z" fill="black"/>
<defs>
<clipPath id="clip0_79_70">
<rect width="256" height="256" fill="white" transform="translate(256) rotate(90)"/>
</clipPath>
</defs>
</svg>
