<svg width="256" height="256" viewBox="0 0 256 256" fill="none" xmlns="http://www.w3.org/2000/svg">
<g filter="url(#filter0_ii_68_2)">
<path fill-rule="evenodd" clip-rule="evenodd" d="M128 256C230.4 256 256 230.4 256 128C256 25.6 230.4 0 128 0C25.6 0 0 25.6 0 128C0 230.4 25.6 256 128 256Z" fill="url(#paint0_radial_68_2)"/>
</g>
<g filter="url(#filter1_ddii_68_2)">
<path d="M191.321 109.698C205.639 109.698 217.245 121.305 217.245 135.623V183.396C217.245 197.714 205.639 209.321 191.321 209.321H175.396C161.079 209.321 149.472 197.714 149.472 183.396V135.623C149.472 121.305 161.079 109.698 175.396 109.698H191.321ZM175.396 129.698C172.125 129.698 169.472 132.351 169.472 135.623V183.396C169.472 186.668 172.125 189.321 175.396 189.321H191.321C194.593 189.321 197.245 186.668 197.245 183.396V135.623C197.245 132.351 194.593 129.698 191.321 129.698H175.396ZM159.473 46C166.348 46.0001 172.942 48.7313 177.804 53.5928C182.665 58.4545 185.397 65.0493 185.397 71.9248V87.8496C185.397 93.3718 180.92 97.8492 175.397 97.8496C169.875 97.8496 165.398 93.3721 165.397 87.8496V71.9248C165.397 70.3538 164.773 68.8464 163.662 67.7354C162.551 66.6244 161.044 66.0001 159.473 66H63.9248C62.3535 66 60.8464 66.6243 59.7354 67.7354C58.6243 68.8464 58 70.3535 58 71.9248V127.661C58.0002 129.232 58.6245 130.74 59.7354 131.851C60.8464 132.961 62.3538 133.586 63.9248 133.586H127.623C133.146 133.586 137.623 138.063 137.623 143.586C137.623 149.108 133.145 153.586 127.623 153.586H121.698V165.435H127.623C133.146 165.435 137.623 169.912 137.623 175.435C137.623 180.957 133.146 185.434 127.623 185.435H87.8115C82.2888 185.435 77.8117 180.957 77.8115 175.435C77.8115 169.912 82.2887 165.435 87.8115 165.435H101.698V153.586H63.9248C57.0493 153.586 50.4545 150.854 45.5928 145.992C40.7313 141.131 38.0002 134.536 38 127.661V71.9248C38 65.0492 40.731 58.4546 45.5928 53.5928C50.4546 48.731 57.0492 46 63.9248 46H159.473Z" fill="white"/>
</g>
<defs>
<filter id="filter0_ii_68_2" x="-6" y="-6" width="268" height="268" filterUnits="userSpaceOnUse" color-interpolation-filters="sRGB">
<feFlood flood-opacity="0" result="BackgroundImageFix"/>
<feBlend mode="normal" in="SourceGraphic" in2="BackgroundImageFix" result="shape"/>
<feColorMatrix in="SourceAlpha" type="matrix" values="0 0 0 0 0 0 0 0 0 0 0 0 0 0 0 0 0 0 127 0" result="hardAlpha"/>
<feOffset dx="6" dy="6"/>
<feGaussianBlur stdDeviation="4"/>
<feComposite in2="hardAlpha" operator="arithmetic" k2="-1" k3="1"/>
<feColorMatrix type="matrix" values="0 0 0 0 1 0 0 0 0 1 0 0 0 0 1 0 0 0 0.2 0"/>
<feBlend mode="normal" in2="shape" result="effect1_innerShadow_68_2"/>
<feColorMatrix in="SourceAlpha" type="matrix" values="0 0 0 0 0 0 0 0 0 0 0 0 0 0 0 0 0 0 127 0" result="hardAlpha"/>
<feOffset dx="-6" dy="-6"/>
<feGaussianBlur stdDeviation="4"/>
<feComposite in2="hardAlpha" operator="arithmetic" k2="-1" k3="1"/>
<feColorMatrix type="matrix" values="0 0 0 0 0 0 0 0 0 0 0 0 0 0 0 0 0 0 0.05 0"/>
<feBlend mode="normal" in2="effect1_innerShadow_68_2" result="effect2_innerShadow_68_2"/>
</filter>
<filter id="filter1_ddii_68_2" x="22" y="42" width="211.245" height="195.321" filterUnits="userSpaceOnUse" color-interpolation-filters="sRGB">
<feFlood flood-opacity="0" result="BackgroundImageFix"/>
<feColorMatrix in="SourceAlpha" type="matrix" values="0 0 0 0 0 0 0 0 0 0 0 0 0 0 0 0 0 0 127 0" result="hardAlpha"/>
<feOffset dy="4"/>
<feGaussianBlur stdDeviation="4"/>
<feComposite in2="hardAlpha" operator="out"/>
<feColorMatrix type="matrix" values="0 0 0 0 0 0 0 0 0 0 0 0 0 0 0 0 0 0 0.125 0"/>
<feBlend mode="normal" in2="BackgroundImageFix" result="effect1_dropShadow_68_2"/>
<feColorMatrix in="SourceAlpha" type="matrix" values="0 0 0 0 0 0 0 0 0 0 0 0 0 0 0 0 0 0 127 0" result="hardAlpha"/>
<feOffset dy="12"/>
<feGaussianBlur stdDeviation="8"/>
<feComposite in2="hardAlpha" operator="out"/>
<feColorMatrix type="matrix" values="0 0 0 0 0 0 0 0 0 0 0 0 0 0 0 0 0 0 0.25 0"/>
<feBlend mode="normal" in2="effect1_dropShadow_68_2" result="effect2_dropShadow_68_2"/>
<feBlend mode="normal" in="SourceGraphic" in2="effect2_dropShadow_68_2" result="shape"/>
<feColorMatrix in="SourceAlpha" type="matrix" values="0 0 0 0 0 0 0 0 0 0 0 0 0 0 0 0 0 0 127 0" result="hardAlpha"/>
<feOffset dy="-2"/>
<feGaussianBlur stdDeviation="3"/>
<feComposite in2="hardAlpha" operator="arithmetic" k2="-1" k3="1"/>
<feColorMatrix type="matrix" values="0 0 0 0 1 0 0 0 0 0.620192 0 0 0 0 0.672652 0 0 0 1 0"/>
<feBlend mode="normal" in2="shape" result="effect3_innerShadow_68_2"/>
<feColorMatrix in="SourceAlpha" type="matrix" values="0 0 0 0 0 0 0 0 0 0 0 0 0 0 0 0 0 0 127 0" result="hardAlpha"/>
<feOffset dy="-2"/>
<feGaussianBlur stdDeviation="3"/>
<feComposite in2="hardAlpha" operator="arithmetic" k2="-1" k3="1"/>
<feColorMatrix type="matrix" values="0 0 0 0 0 0 0 0 0 0 0 0 0 0 0 0 0 0 0.125 0"/>
<feBlend mode="normal" in2="effect3_innerShadow_68_2" result="effect4_innerShadow_68_2"/>
</filter>
<radialGradient id="paint0_radial_68_2" cx="0" cy="0" r="1" gradientUnits="userSpaceOnUse" gradientTransform="rotate(58.6367) scale(245.935)">
<stop stop-color="#FF8C37"/>
<stop offset="1" stop-color="#EC3750"/>
</radialGradient>
</defs>
</svg>
